<?xml version="1.0" encoding="utf-8"?>
<!-- Generator: Adobe Illustrator 22.1.0, SVG Export Plug-In . SVG Version: 6.00 Build 0)  -->
<svg version="1.1" id="Capa_1" xmlns="http://www.w3.org/2000/svg" xmlns:xlink="http://www.w3.org/1999/xlink" x="0px" y="0px"
	 viewBox="0 0 100 100" style="enable-background:new 0 0 100 100;" xml:space="preserve">
<style type="text/css">
	.st0{fill:#FFFFF0;}
</style>
<path class="st0" d="M41,37v18.9c0,3.3-0.9,6.6-2.6,9.4L27.1,84c-1.2,1.9-0.6,4.4,1.3,5.7l0.1,0.1c1.9,1.2,4.5,0.7,5.8-1.3L50,64
	l14.8,24.3c1.2,2,3.8,2.6,5.8,1.3l0,0c1.9-1.2,2.5-3.7,1.3-5.7L60.6,65.3c-1.7-2.8-2.6-6.1-2.6-9.4V37l17.7,8.4
	c1.8,0.9,4,0.1,4.8-1.7l0,0c0.8-1.8,0.1-3.8-1.7-4.7l-17.3-8.7c-7.3-3.6-15.8-3.7-23.2-0.1L20.2,39c-1.8,0.9-2.5,3-1.7,4.7l0,0
	c0.8,1.8,3,2.6,4.8,1.7L41,37z"/>
<circle class="st0" cx="49.5" cy="13.5" r="9.5"/>
</svg>
