<?xml version="1.0" encoding="utf-8"?>
<!-- Generator: Adobe Illustrator 22.1.0, SVG Export Plug-In . SVG Version: 6.00 Build 0)  -->
<svg version="1.1" id="Capa_1" xmlns="http://www.w3.org/2000/svg" xmlns:xlink="http://www.w3.org/1999/xlink" x="0px" y="0px"
	 viewBox="0 0 100 100" style="enable-background:new 0 0 100 100;" xml:space="preserve">
<style type="text/css">
	.st0{fill:#FFFFF0;}
</style>
<g>
	<path class="st0" d="M84.3,49.4c-3.7-5.9-10.3-9.7-17.7-9.7c-11.6,0-21,9.4-21,21c0,2.7,0.5,5.4,1.5,7.8L84.3,49.4z"/>
	<path class="st0" d="M49.3,72.8c3.8,5.4,10.1,9,17.2,9c11.6,0,21-9.4,21-21c0-2.4-0.4-4.7-1.2-6.9L49.3,72.8z"/>
</g>
<path class="st0" d="M37.4,80.6l-0.2,0.2c-5.2,4.4-12.8,4.4-17.9,0L19,80.6c-3.1-2.6-4.8-6.4-4.8-10.5V29.9c0-4.7,2.4-9,6.3-11.6
	l0.5-0.3c4.8-3.1,10.9-2.9,15.5,0.4c3.6,2.6,5.7,6.8,5.7,11.2v40.5C42.2,74.2,40.4,78,37.4,80.6z M36.5,52h-17l0.2,17.6
	c0,2.4,1.1,4.8,2.9,6.4l0.1,0.1c3.1,2.7,7.7,2.7,10.9,0l0.1-0.1c1.9-1.6,2.9-3.9,2.9-6.4L36.5,52z"/>
</svg>
