<?xml version="1.0" encoding="utf-8"?>
<!-- Generator: Adobe Illustrator 22.1.0, SVG Export Plug-In . SVG Version: 6.00 Build 0)  -->
<svg version="1.1" id="Capa_1" xmlns="http://www.w3.org/2000/svg" xmlns:xlink="http://www.w3.org/1999/xlink" x="0px" y="0px"
	 viewBox="0 0 100 100" style="enable-background:new 0 0 100 100;" xml:space="preserve">
<style type="text/css">
	.st0{fill:#FFFFF0;}
</style>
<path class="st0" d="M79.9,80.5l0-61c0-2.2-1.8-4-4-4l-15.2,0l0-5.3c0-2.2-1.8-4-4-4l-10.3,0c-2.2,0-4,1.8-4,3.9l0,5.6l-15.5,0
	c-2.2,0-4,1.8-4,4l0,60.9h-5.2v3.6h66.9v-3.6L79.9,80.5z M45.6,57.8h-8.8V49h8.8V57.8z M45.7,42h-8.8v-8.8h8.8V42z M45.7,13.3h3.6
	V9.4H53v3.9h4.1v3.6H53v3.9h-3.6v-3.9h-3.6V13.3z M55.5,80.8h-8.3V68h8.3V80.8z M65.9,57.8h-8.8V49h8.8V57.8z M66,42h-8.8v-8.8H66
	V42z"/>
</svg>
