<?xml version="1.0" encoding="utf-8"?>
<!-- Generator: Adobe Illustrator 22.1.0, SVG Export Plug-In . SVG Version: 6.00 Build 0)  -->
<svg version="1.1" id="Capa_1" xmlns="http://www.w3.org/2000/svg" xmlns:xlink="http://www.w3.org/1999/xlink" x="0px" y="0px"
	 viewBox="0 0 100 100" style="enable-background:new 0 0 100 100;" xml:space="preserve">
<style type="text/css">
	.st0{fill:#FFFFF0;}
</style>
<path class="st0" d="M79.8,74.5L61.5,46l0.1-27.2l3.9,0c2.7,0,5-2.2,5-4.9l0,0c0-2.7-2.2-5-4.9-5h-31c-2.7,0-5,2.2-4.9,5v0
	c0,2.7,2.3,4.9,5,4.9l3.9,0L38.5,46L20.3,74.5c-4.6,7.1,0.5,16.5,9,16.5h41.4C79.2,91,84.3,81.6,79.8,74.5z M46,46.2V18.7H54v27.5
	l7.8,12.2H39L46,46.2z"/>
</svg>
