<?xml version="1.0" encoding="utf-8"?>
<!-- Generator: Adobe Illustrator 22.1.0, SVG Export Plug-In . SVG Version: 6.00 Build 0)  -->
<svg version="1.1" id="Capa_1" xmlns="http://www.w3.org/2000/svg" xmlns:xlink="http://www.w3.org/1999/xlink" x="0px" y="0px"
	 viewBox="0 0 2834.6 2834.6" style="enable-background:new 0 0 2834.6 2834.6;" xml:space="preserve">
<style type="text/css">
	.st0{fill:#1e90ff;}
</style>
<path class="st0" d="M2605.9,1710.8c-416.7,434.8-1107,449.5-1541.9,32.8s-449.5-1107-32.8-1541.9c0.2-0.2,0.4-0.4,0.5-0.6
	c13.2-13.7-1.1-35.8-19-29.4c-180.8,64.3-349.6,171-490.7,320c-483.5,510.2-455.7,1314.8,61.3,1791
	c502.5,462.8,1285.3,440.2,1760.1-55.3c140.2-146.3,238.1-317.7,293.9-499c5.7-18.6-17.6-32.2-31-18.1
	C2606.3,1710.4,2606.1,1710.6,2605.9,1710.8z"/>
</svg>
