<?xml version="1.0" encoding="utf-8"?>
<!-- Generator: Adobe Illustrator 22.1.0, SVG Export Plug-In . SVG Version: 6.00 Build 0)  -->
<svg version="1.1" id="Capa_1" xmlns="http://www.w3.org/2000/svg" xmlns:xlink="http://www.w3.org/1999/xlink" x="0px" y="0px"
	 viewBox="0 0 100 100" style="enable-background:new 0 0 100 100;" xml:space="preserve">
<style type="text/css">
	.st0{fill:#FFFFFF;stroke:#000000;stroke-miterlimit:10;}
	.st1{fill:#FFFFF0;}
</style>
<path class="st0" d="M87.8,31"/>
<path class="st0" d="M31.2,31"/>
<path class="st0" d="M87.8,39.5"/>
<path class="st0" d="M31.2,39.5"/>
<path class="st0" d="M87.8,48"/>
<path class="st0" d="M31.2,48"/>
<path class="st0" d="M87.8,56.5"/>
<path class="st0" d="M10.2,56.5"/>
<path class="st0" d="M87.8,65"/>
<path class="st0" d="M10.2,65"/>
<path class="st0" d="M87.8,72.5"/>
<path class="st0" d="M10.2,72.5"/>
<path class="st1" d="M90.9,23.5H9.2c-2.9,0-5.4,2.4-5.4,5.4v45.5c0,3,2.4,5.4,5.4,5.4h81.6c2.9,0,5.4-2.4,5.4-5.4V28.9
	C96.2,25.9,93.8,23.5,90.9,23.5z M8.2,35.5h6.5v-6.7h6.5v6.7h6.5v6.7h-6.5V49h-6.5v-6.7H8.2V35.5z M88.5,74.6H12
	c-1,0-1.9-0.9-1.9-1.9v-3.4h80.3v3.3C90.5,73.7,89.6,74.6,88.5,74.6z M90.5,61.8H10.2v-5.3h80.3V61.8z M90.5,48.7H31.6v-5.3h58.9
	V48.7z M90.5,34.1H31.6v-3.1c0-1.2,1-2.2,2.2-2.2h54.5c1.2,0,2.2,1,2.2,2.3V34.1z"/>
</svg>
