<?xml version="1.0" encoding="utf-8"?>
<!-- Generator: Adobe Illustrator 22.1.0, SVG Export Plug-In . SVG Version: 6.00 Build 0)  -->
<svg version="1.1" id="Capa_1" xmlns="http://www.w3.org/2000/svg" xmlns:xlink="http://www.w3.org/1999/xlink" x="0px" y="0px"
	 viewBox="0 0 100 100" style="enable-background:new 0 0 100 100;" xml:space="preserve">
<style type="text/css">
	.st0{fill:#FFFFF0;}
</style>
<path class="st0" d="M80.8,30.7L66.1,51.8h8.7C73.8,67,61.2,79,45.9,79c-16,0-29-13-29-29s13-29,29-29c8,0,15.2,3.2,20.5,8.5
	l0.6-0.6l6.7-9.5C66.3,12.7,56.6,8.6,45.9,8.6C23,8.6,4.5,27.2,4.5,50c0,22.8,18.5,41.4,41.4,41.4c22.2,0,40.4-17.5,41.3-39.5h8.3
	L80.8,30.7z"/>
</svg>
